<svg width="169" height="169" viewBox="0 0 169 169" fill="none" xmlns="http://www.w3.org/2000/svg">
<g clip-path="url(#clip0_123_2525)">
<path d="M103.746 150.053C139.276 138.587 159.099 99.4794 148.022 62.7031C136.945 25.9267 99.1628 5.40835 63.6332 16.874C28.1035 28.3396 8.28066 67.4474 19.3576 104.224C30.4345 141 68.2167 161.518 103.746 150.053Z" fill="#407BFF"/>
<path d="M22.876 118.323C30.9841 115.706 33.7147 124.772 41.8244 122.155C49.9341 119.538 47.2035 110.472 55.3118 107.856C63.4201 105.239 66.1521 114.304 74.2618 111.687C82.3714 109.07 79.6395 100.005 87.7492 97.388C95.8589 94.771 98.5893 103.836 106.698 101.22C114.806 98.6033 112.077 89.5374 120.187 86.9203C128.296 84.3033 131.027 93.3687 139.136 90.7515C147.246 88.1346 144.516 79.0691 152.625 76.4521" stroke="white" stroke-opacity="0.08" stroke-width="2" stroke-miterlimit="10"/>
<path d="M31.0645 145.506C39.1726 142.889 41.9032 151.954 50.0129 149.337C58.1225 146.72 55.392 137.655 63.5003 135.038C71.6086 132.422 74.3404 141.487 82.4502 138.87C90.5599 136.253 87.828 127.188 95.9377 124.571C104.047 121.954 106.778 131.019 114.886 128.402C122.994 125.786 120.265 116.72 128.375 114.103C136.485 111.486 139.215 120.551 147.325 117.934C155.434 115.317 152.704 106.252 160.814 103.635" stroke="white" stroke-opacity="0.08" stroke-width="2" stroke-miterlimit="10"/>
<path d="M14.6897 91.1403C22.7979 88.5238 25.5284 97.589 33.6381 94.972C41.7478 92.3551 39.0172 83.2896 47.1256 80.673C55.2339 78.0565 57.9656 87.1213 66.0755 84.5043C74.1852 81.8874 71.4533 72.8223 79.5629 70.2053C87.6726 67.5884 90.403 76.6536 98.5113 74.037C106.619 71.4205 103.89 62.3546 112 59.7376C120.11 57.1207 122.84 66.1859 130.95 63.5689C139.06 60.952 136.329 51.8865 144.439 49.2695" stroke="white" stroke-opacity="0.08" stroke-width="2" stroke-miterlimit="10"/>
<path d="M2.40796 50.3664C10.5162 47.7498 13.2466 56.8152 21.3563 54.1981C29.466 51.5811 26.7356 42.5156 34.8439 39.8991C42.9521 37.2825 45.684 46.3475 53.7937 43.7304C61.9034 41.1134 59.1714 32.0485 67.2811 29.4314C75.3908 26.8144 78.1214 35.8798 86.2295 33.2633C94.3378 30.6467 91.6088 21.5808 99.7185 18.9637C107.828 16.3467 110.559 25.4121 118.668 22.7952C126.778 20.178 124.048 11.1126 132.157 8.49561" stroke="white" stroke-opacity="0.08" stroke-width="2" stroke-miterlimit="10"/>
<path d="M35.1575 159.097C43.2658 156.481 45.9962 165.546 54.1059 162.929C62.2156 160.312 59.4852 151.247 67.5933 148.63C75.7016 146.014 78.4336 155.079 86.5433 152.461C94.6529 149.844 91.921 140.78 100.031 138.162C108.14 135.545 110.871 144.611 118.979 141.994C127.087 139.378 124.358 130.312 132.468 127.695C140.578 125.078 143.308 134.143 151.418 131.526C159.528 128.909 156.797 119.844 164.907 117.227" stroke="white" stroke-opacity="0.08" stroke-width="2" stroke-miterlimit="10"/>
<path d="M18.7827 104.731C26.891 102.115 29.6214 111.18 37.7311 108.563C45.8408 105.946 43.1104 96.8809 51.2185 94.2643C59.3269 91.6478 62.0588 100.713 70.1685 98.0956C78.2782 95.4787 75.5462 86.4136 83.6559 83.7966C91.7656 81.1797 94.4962 90.2449 102.604 87.6283C110.713 85.0118 107.984 75.9459 116.093 73.3289C124.203 70.712 126.934 79.7772 135.043 77.1602C143.153 74.5433 140.422 65.4778 148.532 62.8608" stroke="white" stroke-opacity="0.08" stroke-width="2" stroke-miterlimit="10"/>
<path d="M6.50122 63.9577C14.6095 61.3411 17.3399 70.4066 25.4497 67.7894C33.5593 65.1724 30.8288 56.107 38.9371 53.4904C47.0454 50.8738 49.7774 59.9389 57.887 57.3217C65.9967 54.7047 63.2648 45.6399 71.3745 43.0227C79.4842 40.4057 82.2145 49.4712 90.3229 46.8546C98.431 44.238 95.702 35.1722 103.812 32.555C111.922 29.938 114.652 39.0035 122.762 36.3863C130.871 33.7693 128.141 24.7039 136.251 22.0869" stroke="white" stroke-opacity="0.08" stroke-width="2" stroke-miterlimit="10"/>
<path d="M26.97 131.914C35.0783 129.298 37.8087 138.363 45.9184 135.746C54.0281 133.129 51.2977 124.064 59.4058 121.447C67.5141 118.83 70.2461 127.895 78.3558 125.278C86.4654 122.661 83.7335 113.596 91.8432 110.979C99.9529 108.362 102.683 117.428 110.792 114.811C118.9 112.195 116.171 103.129 124.281 100.512C132.39 97.8946 135.121 106.96 143.231 104.343C151.34 101.726 148.61 92.6604 156.719 90.0435" stroke="white" stroke-opacity="0.08" stroke-width="2" stroke-miterlimit="10"/>
<path d="M10.5952 77.5485C18.7035 74.932 21.4339 83.9974 29.5436 81.3804C37.6532 78.7633 34.9229 69.698 43.031 67.0814C51.1393 64.4649 53.8712 73.5297 61.9809 70.9127C70.0906 68.2956 67.3587 59.2307 75.4684 56.6137C83.578 53.9966 86.3086 63.062 94.4167 60.4454C102.525 57.8289 99.7961 48.763 107.906 46.146C116.015 43.5289 118.746 52.5943 126.856 49.9773C134.965 47.3602 132.235 38.2949 140.344 35.6777" stroke="white" stroke-opacity="0.08" stroke-width="2" stroke-miterlimit="10"/>
<path d="M-1.68506 36.7751C6.42318 34.1586 9.15364 43.2238 17.2633 40.6068C25.3731 37.9899 22.6425 28.9244 30.7508 26.3078C38.8591 23.6913 41.5911 32.7561 49.7008 30.1391C57.8104 27.5222 55.0785 18.4571 63.1882 15.8401C71.2979 13.2231 74.0283 22.2884 82.1366 19.6718C90.2447 17.0553 87.5157 7.9895 95.6256 5.37246C103.735 2.75543 106.466 11.8208 114.575 9.20376C122.685 6.58672 119.955 -2.47866 128.064 -5.0957" stroke="white" stroke-opacity="0.08" stroke-width="2" stroke-miterlimit="10"/>
<path d="M21.5129 113.797C29.6213 111.181 32.3517 120.246 40.4613 117.629C48.5712 115.012 45.8406 105.946 53.949 103.33C62.0571 100.713 64.789 109.778 72.8987 107.161C81.0084 104.544 78.2765 95.4793 86.3861 92.8621C94.4958 90.2451 97.2264 99.3105 105.335 96.694C113.443 94.0774 110.714 85.0115 118.824 82.3944C126.933 79.7774 129.664 88.8428 137.773 86.2257C145.883 83.6087 143.153 74.5432 151.262 71.9263" stroke="white" stroke-opacity="0.08" stroke-width="2" stroke-miterlimit="10"/>
<path d="M29.7004 140.98C37.8088 138.363 40.5392 147.429 48.6488 144.811C56.7587 142.194 54.0281 133.129 62.1365 130.513C70.2446 127.896 72.9765 136.961 81.0862 134.344C89.1959 131.727 86.464 122.662 94.5737 120.045C102.684 117.428 105.414 126.493 113.522 123.877C121.63 121.26 118.901 112.194 127.011 109.577C135.121 106.96 137.851 116.025 145.961 113.408C154.071 110.791 151.34 101.726 159.45 99.1089" stroke="white" stroke-opacity="0.08" stroke-width="2" stroke-miterlimit="10"/>
<path d="M13.3257 86.6145C21.4339 83.9979 24.1643 93.0633 32.274 90.4462C40.3839 87.8292 37.6533 78.7637 45.7616 76.1472C53.8698 73.5308 56.6017 82.5956 64.7114 79.9787C72.8211 77.3615 70.0891 68.2966 78.1988 65.6797C86.3087 63.0625 89.0391 72.1279 97.1472 69.5114C105.256 66.8948 102.527 57.8289 110.636 55.212C118.746 52.5948 121.476 61.6602 129.586 59.0433C137.696 56.4261 134.965 47.3608 143.075 44.7437" stroke="white" stroke-opacity="0.08" stroke-width="2" stroke-miterlimit="10"/>
<path d="M1.04492 45.84C9.15317 43.2234 11.8836 52.2889 19.9933 49.6717C28.103 47.0547 25.3726 37.9893 33.4808 35.3727C41.5891 32.7561 44.321 41.8212 52.4307 39.204C60.5404 36.587 57.8085 27.5222 65.9182 24.905C74.0278 22.288 76.7582 31.3535 84.8665 28.7369C92.9749 26.1203 90.2458 17.0545 98.3555 14.4374C106.465 11.8204 109.196 20.8858 117.305 18.2688C125.415 15.6517 122.685 6.58627 130.794 3.96924" stroke="white" stroke-opacity="0.08" stroke-width="2" stroke-miterlimit="10"/>
<path d="M33.7944 154.571C41.9026 151.955 44.6331 161.02 52.7428 158.403C60.8525 155.786 58.1221 146.721 66.2303 144.104C74.3386 141.488 77.0705 150.553 85.1802 147.935C93.2899 145.319 90.558 136.254 98.6676 133.636C106.777 131.02 109.508 140.085 117.616 137.468C125.724 134.852 122.995 125.786 131.105 123.169C139.215 120.552 141.945 129.617 150.055 127C158.164 124.383 155.434 115.318 163.544 112.701" stroke="white" stroke-opacity="0.08" stroke-width="2" stroke-miterlimit="10"/>
<path d="M17.4197 100.206C25.5278 97.589 28.2584 106.654 36.3681 104.037C44.4778 101.42 41.7474 92.355 49.8555 89.7385C57.9639 87.1219 60.6958 96.1867 68.8055 93.5698C76.9152 90.9528 74.1832 81.8877 82.2929 79.2708C90.4026 76.6538 93.133 85.719 101.241 83.1025C109.35 80.4859 106.621 71.42 114.73 68.8031C122.84 66.1861 125.57 75.2513 133.68 72.6344C141.79 70.0174 139.059 60.9519 147.169 58.335" stroke="white" stroke-opacity="0.08" stroke-width="2" stroke-miterlimit="10"/>
<path d="M5.13818 59.4314C13.2464 56.8148 15.9769 65.8802 24.0865 63.2631C32.1964 60.6461 29.4658 51.5806 37.5741 48.9641C45.6823 46.3475 48.4142 55.4125 56.5239 52.7953C64.6336 50.1784 61.9016 41.1135 70.0113 38.4964C78.1212 35.8794 80.8516 44.9448 88.9597 42.3282C97.068 39.7117 94.339 30.6458 102.449 28.0286C110.558 25.4117 113.289 34.4771 121.399 31.8599C129.508 29.243 126.778 20.1775 134.888 17.5605" stroke="white" stroke-opacity="0.08" stroke-width="2" stroke-miterlimit="10"/>
<path d="M25.6072 127.388C33.7153 124.772 36.4459 133.837 44.5556 131.22C52.6653 128.603 49.9349 119.538 58.043 116.921C66.1513 114.305 68.8833 123.369 76.993 120.752C85.1026 118.135 82.3707 109.071 90.4804 106.453C98.5901 103.836 101.32 112.902 109.429 110.285C117.537 107.669 114.808 98.6029 122.918 95.9857C131.027 93.3687 133.758 102.434 141.868 99.817C149.977 97.2 147.247 88.1346 155.357 85.5176" stroke="white" stroke-opacity="0.08" stroke-width="2" stroke-miterlimit="10"/>
<path d="M9.23242 73.0227C17.3407 70.4061 20.0712 79.4715 28.1808 76.8546C36.2905 74.2374 33.5601 65.1721 41.6683 62.5556C49.7766 59.939 52.5085 69.0038 60.6182 66.3869C68.7279 63.7697 65.996 54.7048 74.1057 52.0879C82.2153 49.4707 84.9457 58.5361 93.054 55.9196C101.162 53.303 98.4333 44.2371 106.543 41.6202C114.653 39.003 117.383 48.0684 125.493 45.4515C133.602 42.8343 130.872 33.769 138.982 31.1519" stroke="white" stroke-opacity="0.08" stroke-width="2" stroke-miterlimit="10"/>
<path d="M-3.04907 32.2488C5.05917 29.6322 7.78963 38.6975 15.8993 36.0805C24.0091 33.4635 21.2785 24.3981 29.3869 21.7815C37.495 19.1649 40.2269 28.2298 48.3366 25.6128C56.4463 22.9958 53.7144 13.9308 61.824 11.3138C69.9339 8.69674 72.6643 17.762 80.7724 15.1456C88.8808 12.529 86.1517 3.46313 94.2614 0.846092C102.371 -1.77094 105.102 7.29445 113.211 4.67739C121.321 2.06035 118.59 -7.00503 126.7 -9.62207" stroke="white" stroke-opacity="0.08" stroke-width="2" stroke-miterlimit="10"/>
<path d="M37.8877 168.163C45.996 165.546 48.7264 174.611 56.8361 171.995C64.946 169.377 62.2154 160.312 70.3237 157.696C78.4318 155.079 81.1638 164.144 89.2735 161.527C97.3832 158.91 94.6512 149.845 102.761 147.228C110.871 144.611 113.601 153.676 121.709 151.059C129.818 148.443 127.089 139.377 135.198 136.76C143.308 134.143 146.039 143.208 154.148 140.591C162.258 137.974 159.527 128.909 167.637 126.292" stroke="white" stroke-opacity="0.08" stroke-width="2" stroke-miterlimit="10"/>
<path d="M21.5129 113.797C29.6213 111.181 32.3517 120.246 40.4613 117.629C48.5712 115.012 45.8406 105.946 53.949 103.33C62.0571 100.713 64.789 109.778 72.8987 107.161C81.0084 104.544 78.2765 95.4793 86.3861 92.8621C94.4958 90.2451 97.2264 99.3105 105.335 96.694C113.443 94.0774 110.714 85.0115 118.824 82.3944C126.933 79.7774 129.664 88.8428 137.773 86.2257C145.883 83.6087 143.153 74.5432 151.262 71.9263" stroke="white" stroke-opacity="0.08" stroke-width="2" stroke-miterlimit="10"/>
<path d="M29.7004 140.98C37.8088 138.363 40.5392 147.429 48.6488 144.811C56.7587 142.194 54.0281 133.129 62.1365 130.513C70.2446 127.896 72.9765 136.961 81.0862 134.344C89.1959 131.727 86.464 122.662 94.5737 120.045C102.684 117.428 105.414 126.493 113.522 123.877C121.63 121.26 118.901 112.194 127.011 109.577C135.121 106.96 137.851 116.025 145.961 113.408C154.071 110.791 151.34 101.726 159.45 99.1089" stroke="white" stroke-opacity="0.08" stroke-width="2" stroke-miterlimit="10"/>
<path d="M13.3257 86.6145C21.4339 83.9979 24.1643 93.0633 32.274 90.4462C40.3839 87.8292 37.6533 78.7637 45.7616 76.1472C53.8698 73.5308 56.6017 82.5956 64.7114 79.9787C72.8211 77.3615 70.0891 68.2966 78.1988 65.6797C86.3087 63.0625 89.0391 72.1279 97.1472 69.5114C105.256 66.8948 102.527 57.8289 110.636 55.212C118.746 52.5948 121.476 61.6602 129.586 59.0433C137.696 56.4261 134.965 47.3608 143.075 44.7437" stroke="white" stroke-opacity="0.08" stroke-width="2" stroke-miterlimit="10"/>
<path d="M1.04492 45.84C9.15317 43.2234 11.8836 52.2889 19.9933 49.6717C28.103 47.0547 25.3726 37.9893 33.4808 35.3727C41.5891 32.7561 44.321 41.8212 52.4307 39.204C60.5404 36.587 57.8085 27.5222 65.9182 24.905C74.0278 22.288 76.7582 31.3535 84.8665 28.7369C92.9749 26.1203 90.2458 17.0545 98.3555 14.4374C106.465 11.8204 109.196 20.8858 117.305 18.2688C125.415 15.6517 122.685 6.58627 130.794 3.96924" stroke="white" stroke-opacity="0.08" stroke-width="2" stroke-miterlimit="10"/>
<path d="M33.7944 154.571C41.9026 151.955 44.6331 161.02 52.7428 158.403C60.8525 155.786 58.1221 146.721 66.2303 144.104C74.3386 141.488 77.0705 150.553 85.1802 147.935C93.2899 145.319 90.558 136.254 98.6676 133.636C106.777 131.02 109.508 140.085 117.616 137.468C125.724 134.852 122.995 125.786 131.105 123.169C139.215 120.552 141.945 129.617 150.055 127C158.164 124.383 155.434 115.318 163.544 112.701" stroke="white" stroke-opacity="0.08" stroke-width="2" stroke-miterlimit="10"/>
<path d="M17.4197 100.206C25.5278 97.589 28.2584 106.654 36.3681 104.037C44.4778 101.42 41.7474 92.355 49.8555 89.7385C57.9639 87.1219 60.6958 96.1867 68.8055 93.5698C76.9152 90.9528 74.1832 81.8877 82.2929 79.2708C90.4026 76.6538 93.133 85.719 101.241 83.1025C109.35 80.4859 106.621 71.42 114.73 68.8031C122.84 66.1861 125.57 75.2513 133.68 72.6344C141.79 70.0174 139.059 60.9519 147.169 58.335" stroke="white" stroke-opacity="0.08" stroke-width="2" stroke-miterlimit="10"/>
<path d="M5.13818 59.4314C13.2464 56.8148 15.9769 65.8802 24.0865 63.2631C32.1964 60.6461 29.4658 51.5806 37.5741 48.9641C45.6823 46.3475 48.4142 55.4125 56.5239 52.7953C64.6336 50.1784 61.9016 41.1135 70.0113 38.4964C78.1212 35.8794 80.8516 44.9448 88.9597 42.3282C97.068 39.7117 94.339 30.6458 102.449 28.0286C110.558 25.4117 113.289 34.4771 121.399 31.8599C129.508 29.243 126.778 20.1775 134.888 17.5605" stroke="white" stroke-opacity="0.08" stroke-width="2" stroke-miterlimit="10"/>
<path d="M25.6072 127.388C33.7153 124.772 36.4459 133.837 44.5556 131.22C52.6653 128.603 49.9349 119.538 58.043 116.921C66.1513 114.305 68.8833 123.369 76.993 120.752C85.1026 118.135 82.3707 109.071 90.4804 106.453C98.5901 103.836 101.32 112.902 109.429 110.285C117.537 107.669 114.808 98.6029 122.918 95.9857C131.027 93.3687 133.758 102.434 141.868 99.817C149.977 97.2 147.247 88.1346 155.357 85.5176" stroke="white" stroke-opacity="0.08" stroke-width="2" stroke-miterlimit="10"/>
<path d="M9.23242 73.0227C17.3407 70.4061 20.0712 79.4715 28.1808 76.8546C36.2905 74.2374 33.5601 65.1721 41.6683 62.5556C49.7766 59.939 52.5085 69.0038 60.6182 66.3869C68.7279 63.7697 65.996 54.7048 74.1057 52.0879C82.2153 49.4707 84.9457 58.5361 93.054 55.9196C101.162 53.303 98.4333 44.2371 106.543 41.6202C114.653 39.003 117.383 48.0684 125.493 45.4515C133.602 42.8343 130.872 33.769 138.982 31.1519" stroke="white" stroke-opacity="0.08" stroke-width="2" stroke-miterlimit="10"/>
<path d="M-3.04907 32.2488C5.05917 29.6322 7.78963 38.6975 15.8993 36.0805C24.0091 33.4635 21.2785 24.3981 29.3869 21.7815C37.495 19.1649 40.2269 28.2298 48.3366 25.6128C56.4463 22.9958 53.7144 13.9308 61.824 11.3138C69.9339 8.69674 72.6643 17.762 80.7724 15.1456C88.8808 12.529 86.1517 3.46313 94.2614 0.846092C102.371 -1.77094 105.102 7.29445 113.211 4.67739C121.321 2.06035 118.59 -7.00503 126.7 -9.62207" stroke="white" stroke-opacity="0.08" stroke-width="2" stroke-miterlimit="10"/>
<path d="M36.5249 163.636C44.6332 161.02 47.3636 170.085 55.4733 167.468C63.583 164.851 60.8526 155.786 68.9607 153.169C77.0691 150.553 79.801 159.617 87.9107 157C96.0204 154.383 93.2884 145.318 101.398 142.701C109.508 140.084 112.238 149.15 120.347 146.533C128.455 143.917 125.726 134.851 133.835 132.234C141.945 129.617 144.676 138.682 152.785 136.065C160.895 133.448 158.165 124.383 166.274 121.766" stroke="white" stroke-opacity="0.08" stroke-width="2" stroke-miterlimit="10"/>
<path d="M20.1501 109.271C28.2585 106.654 30.9889 115.72 39.0985 113.103C47.2082 110.486 44.4778 101.42 52.586 98.8039C60.6943 96.1873 63.4262 105.252 71.5359 102.635C79.6456 100.018 76.9137 90.9532 85.0234 88.3362C93.133 85.719 95.8636 94.7845 103.972 92.1679C112.08 89.5513 109.351 80.4855 117.461 77.8685C125.57 75.2515 128.301 84.3168 136.41 81.6998C144.52 79.0828 141.79 70.0174 149.899 67.4004" stroke="white" stroke-opacity="0.08" stroke-width="2" stroke-miterlimit="10"/>
<path d="M28.3374 136.454C36.4457 133.837 39.1761 142.903 47.2858 140.286C55.3955 137.669 52.6651 128.603 60.7732 125.987C68.8816 123.37 71.6135 132.435 79.7232 129.818C87.8329 127.201 85.1009 118.136 93.2106 115.519C101.32 112.902 104.051 121.967 112.159 119.351C120.267 116.734 117.538 107.668 125.648 105.051C133.758 102.434 136.488 111.5 144.598 108.883C152.708 106.265 149.977 97.2002 158.087 94.583" stroke="white" stroke-opacity="0.08" stroke-width="2" stroke-miterlimit="10"/>
<path d="M11.9626 82.0886C20.071 79.472 22.8013 88.5375 30.911 85.9203C39.0207 83.3033 36.2903 74.2379 44.3984 71.6213C52.5068 69.0049 55.2387 78.0698 63.3484 75.4528C71.4581 72.8356 68.7261 63.7708 76.8358 61.1538C84.9455 58.5366 87.6761 67.6021 95.7842 64.9855C103.893 62.3689 101.164 53.3031 109.273 50.6861C117.383 48.0689 120.113 57.1344 128.223 54.5174C136.333 51.9002 133.602 42.8349 141.712 40.2178" stroke="white" stroke-opacity="0.08" stroke-width="2" stroke-miterlimit="10"/>
<path d="M-0.317871 41.3141C7.79036 38.6975 10.5208 47.763 18.6306 45.1458C26.7403 42.5288 24.0097 33.4634 32.118 30.8468C40.2262 28.2302 42.9581 37.2953 51.0678 34.6781C59.1775 32.0611 56.4457 22.9963 64.5554 20.3791C72.6651 17.7621 75.3955 26.8276 83.5038 24.211C91.6119 21.5944 88.8829 12.5286 96.9926 9.91152C105.102 7.29449 107.833 16.3599 115.943 13.7428C124.052 11.1258 121.322 2.06039 129.432 -0.556641" stroke="white" stroke-opacity="0.08" stroke-width="2" stroke-miterlimit="10"/>
<path d="M32.4307 150.045C40.5388 147.429 43.2694 156.494 51.3791 153.877C59.4887 151.26 56.7582 142.194 64.8665 139.578C72.9746 136.961 75.7066 146.026 83.8162 143.409C91.9259 140.792 89.1942 131.727 97.3039 129.11C105.414 126.493 108.144 135.559 116.252 132.942C124.36 130.325 121.631 121.26 129.741 118.642C137.851 116.025 140.581 125.091 148.691 122.474C156.801 119.857 154.07 110.791 162.18 108.174" stroke="white" stroke-opacity="0.08" stroke-width="2" stroke-miterlimit="10"/>
<path d="M16.0559 95.6797C24.1641 93.0631 26.8947 102.129 35.0044 99.5116C43.1141 96.8946 40.3835 87.8292 48.4918 85.2126C56.6 82.596 59.3319 91.6609 67.4416 89.0439C75.5514 86.4269 72.8195 77.3619 80.9292 74.7449C89.0389 72.1279 91.7693 81.1932 99.8776 78.5766C107.986 75.96 105.257 66.8942 113.366 64.2772C121.476 61.6602 124.207 70.7255 132.316 68.1085C140.426 65.4915 137.696 56.4261 145.805 53.8091" stroke="white" stroke-opacity="0.08" stroke-width="2" stroke-miterlimit="10"/>
<path d="M3.77515 54.9055C11.8834 52.2889 14.6139 61.3543 22.7235 58.7372C30.8332 56.1202 28.1028 47.0547 36.2109 44.4382C44.3193 41.8216 47.0512 50.8866 55.1609 48.2695C63.2706 45.6525 60.5386 36.5876 68.6483 33.9705C76.758 31.3535 79.4886 40.4189 87.5967 37.8024C95.705 35.1858 92.976 26.1199 101.086 23.5028C109.195 20.8858 111.926 29.9512 120.035 27.334C128.145 24.7171 125.415 15.6517 133.524 13.0347" stroke="white" stroke-opacity="0.08" stroke-width="2" stroke-miterlimit="10"/>
<path d="M24.2441 122.863C32.3523 120.246 35.0829 129.311 43.1925 126.694C51.3022 124.077 48.5716 115.012 56.68 112.395C64.7881 109.779 67.52 118.843 75.6297 116.226C83.7394 113.61 81.0077 104.545 89.1174 101.928C97.227 99.3105 99.9574 108.376 108.066 105.759C116.174 103.143 113.445 94.077 121.555 91.4598C129.664 88.8428 132.395 97.9083 140.504 95.2911C148.614 92.6741 145.884 83.6087 153.993 80.9917" stroke="white" stroke-opacity="0.08" stroke-width="2" stroke-miterlimit="10"/>
<path d="M7.86841 68.4968C15.9766 65.8802 18.7072 74.9457 26.8169 72.3287C34.9266 69.7115 32.196 60.6463 40.3043 58.0297C48.4124 55.4131 51.1444 64.478 59.2541 61.861C67.3638 59.2438 64.632 50.179 72.7417 47.562C80.8514 44.9448 83.5818 54.0103 91.6901 51.3937C99.7982 48.7771 97.0692 39.7113 105.179 37.0943C113.289 34.4771 116.019 43.5426 124.129 40.9256C132.239 38.3084 129.508 29.2432 137.618 26.626" stroke="white" stroke-opacity="0.08" stroke-width="2" stroke-miterlimit="10"/>
<path d="M-4.41211 27.7229C3.69612 25.1063 6.4266 34.1716 14.5363 31.5546C22.6459 28.9376 19.9156 19.8722 28.0237 17.2556C36.132 14.639 38.864 23.7039 46.9736 21.0869C55.0833 18.4699 52.3514 9.40495 60.4611 6.7879C68.5708 4.17086 71.3013 13.2362 79.4095 10.6197C87.5178 8.00312 84.7888 -1.06275 92.8984 -3.67979C101.008 -6.29683 103.739 2.76857 111.848 0.151511C119.958 -2.46552 117.227 -11.5309 125.337 -14.1479" stroke="white" stroke-opacity="0.08" stroke-width="2" stroke-miterlimit="10"/>
<path d="M39.2507 172.688C47.3589 170.072 50.0894 179.137 58.1991 176.52C66.3088 173.903 63.5782 164.838 71.6866 162.221C79.7949 159.605 82.5266 168.67 90.6365 166.053C98.7462 163.435 96.0143 154.371 104.124 151.754C112.234 149.136 114.964 158.202 123.072 155.585C131.18 152.969 128.451 143.903 136.561 141.286C144.671 138.669 147.401 147.734 155.511 145.117C163.621 142.5 160.89 133.435 169 130.818" stroke="white" stroke-opacity="0.08" stroke-width="2" stroke-miterlimit="10"/>
<path d="M37.8877 168.163C45.996 165.546 48.7264 174.611 56.8361 171.995C64.946 169.377 62.2154 160.312 70.3237 157.696C78.4318 155.079 81.1638 164.144 89.2735 161.527C97.3832 158.91 94.6512 149.845 102.761 147.228C110.871 144.611 113.601 153.676 121.709 151.059C129.818 148.443 127.089 139.377 135.198 136.76C143.308 134.143 146.039 143.208 154.148 140.591C162.258 137.974 159.527 128.909 167.637 126.292" stroke="white" stroke-opacity="0.08" stroke-width="2" stroke-miterlimit="10"/>
</g>
<defs>
<clipPath id="clip0_123_2525">
<rect width="169" height="169" fill="white"/>
</clipPath>
</defs>
</svg>
