<svg width="18" height="22" viewBox="0 0 18 22" fill="none" xmlns="http://www.w3.org/2000/svg">
<path d="M9.00001 0.753418C6.81276 0.755982 4.71584 1.62063 3.16923 3.15768C1.62261 4.69474 0.752589 6.77869 0.750009 8.95241C0.747389 10.7288 1.33124 12.4569 2.41201 13.8718C2.41201 13.8718 2.63701 14.1662 2.67376 14.2087L9.00001 21.6236L15.3293 14.205C15.3623 14.1655 15.588 13.8718 15.588 13.8718L15.5888 13.8696C16.669 12.4553 17.2526 10.728 17.25 8.95241C17.2474 6.77869 16.3774 4.69474 14.8308 3.15768C13.2842 1.62063 11.1873 0.755982 9.00001 0.753418ZM9.00001 11.9339C8.40666 11.9339 7.82665 11.759 7.3333 11.4314C6.83995 11.1038 6.45543 10.6382 6.22837 10.0934C6.00131 9.54858 5.9419 8.94911 6.05765 8.37076C6.17341 7.79242 6.45913 7.26117 6.87869 6.84421C7.29825 6.42724 7.83279 6.14329 8.41474 6.02825C8.99668 5.91321 9.59988 5.97225 10.1481 6.19791C10.6962 6.42357 11.1648 6.80571 11.4944 7.29601C11.8241 7.7863 12 8.36274 12 8.95241C11.999 9.74284 11.6826 10.5006 11.1202 11.0595C10.5578 11.6184 9.79535 11.9329 9.00001 11.9339Z" fill="white"/>
</svg>
