<svg width="66" height="66" viewBox="0 0 66 66" fill="none" xmlns="http://www.w3.org/2000/svg">
<path d="M40.8015 24.3633L40.8036 24.3652C42.096 25.565 44.2996 26.6787 46.7404 27.6694C49.2167 28.6745 52.0657 29.6025 54.7517 30.3912C57.1988 31.1098 59.5244 31.7169 61.3317 32.1649C59.5595 32.7345 57.2814 33.498 54.8898 34.3817C52.2644 35.3517 49.486 36.4725 47.0849 37.6463C44.7184 38.8032 42.5965 40.0685 41.3905 41.3604C40.1845 42.6523 39.0683 44.8558 38.0771 47.2959C37.0714 49.7717 36.1446 52.62 35.3578 55.3053C34.6419 57.7482 34.0379 60.07 33.592 61.8757C33.0227 60.1053 32.2602 57.8311 31.3779 55.4437C30.408 52.819 29.2873 50.0413 28.1136 47.6403C26.9567 45.2737 25.6916 43.1517 24.4002 41.9445C23.1082 40.737 20.9043 39.6196 18.4639 38.6276C15.9878 37.6211 13.139 36.6938 10.4532 35.9065C8.01294 35.1913 5.69349 34.5877 3.88844 34.1417C5.65818 33.5745 7.92988 32.8149 10.3145 31.9352C12.9398 30.9667 15.7183 29.8466 18.12 28.6714C20.4871 27.5131 22.61 26.2443 23.8173 24.9452C25.023 23.6478 26.1394 21.4423 27.131 19.0006C28.1369 16.5238 29.0635 13.6764 29.8501 10.9926C30.5649 8.55357 31.1682 6.23608 31.6137 4.433C32.1825 6.20363 32.9443 8.4779 33.8258 10.8653C34.7952 13.4903 35.9152 16.2683 37.0885 18.6691C38.2449 21.0354 39.5097 23.1572 40.8015 24.3633Z" stroke="#151516" stroke-width="2"/>
</svg>
