<svg width="79" height="65" viewBox="0 0 79 65" fill="none" xmlns="http://www.w3.org/2000/svg">
<path d="M74.3991 64.5265C74.3075 63.2217 73.969 61.9473 74.0009 60.6274C74.5097 49.0346 69.8006 39.3978 62.9567 30.7748C60.6014 27.805 57.2332 25.2729 53.7746 23.5665C43.9765 18.5644 33.468 16.0308 22.4164 16.321C19.2314 16.3984 15.9958 17.1086 12.8186 18.3129C13.7958 18.6317 14.842 19.0047 15.8736 19.2542C18.8449 20.0177 21.8707 20.7119 24.8022 21.6683C26.0409 22.0803 27.2145 23.0017 28.2647 23.9382C28.6789 24.2634 28.8103 25.3752 28.5527 25.8455C28.2952 26.3157 27.2821 26.7533 26.8825 26.5517C19.5989 23.7478 11.7683 23.2043 4.11166 22.0128C1.4311 21.5896 0.475196 20.3909 1.11652 17.8683C2.76166 11.6506 5.72915 6.02278 9.84107 1.06919C9.94994 0.93051 10.3894 0.939273 11.1302 0.848403C14.0059 5.57157 9.27928 9.03393 8.50512 14.1421C9.64162 13.6894 10.5312 13.2669 11.3809 13.0374C28.5173 9.11821 44.5104 12.4831 59.5368 20.9171C61.8111 22.1421 63.9114 24.0151 65.7104 25.9878C72.2702 33.267 76.5319 41.7681 77.9323 51.4974C78.3664 54.6401 77.8817 57.9581 77.5059 61.1375C77.405 62.4032 76.4796 63.582 75.9246 64.7154C75.4161 64.6524 74.9076 64.5894 74.3991 64.5265Z" fill="white"/>
<path d="M74.3991 64.5265C74.3075 63.2217 73.969 61.9473 74.0009 60.6274C74.5097 49.0346 69.8006 39.3978 62.9567 30.7748C60.6014 27.805 57.2332 25.2729 53.7746 23.5665C43.9765 18.5644 33.468 16.0308 22.4164 16.321C19.2314 16.3984 15.9958 17.1086 12.8186 18.3129C13.7958 18.6317 14.842 19.0047 15.8736 19.2542C18.8449 20.0177 21.8707 20.7119 24.8022 21.6683C26.0409 22.0803 27.2145 23.0017 28.2647 23.9382C28.6789 24.2634 28.8103 25.3752 28.5527 25.8455C28.2952 26.3157 27.2821 26.7533 26.8825 26.5517C19.5989 23.7478 11.7683 23.2043 4.11166 22.0128C1.4311 21.5896 0.475196 20.3909 1.11652 17.8683C2.76166 11.6506 5.72915 6.02278 9.84107 1.06919C9.94994 0.93051 10.3894 0.939273 11.1302 0.848403C14.0059 5.57157 9.27928 9.03393 8.50512 14.1421C9.64162 13.6894 10.5312 13.2669 11.3809 13.0374C28.5173 9.11821 44.5104 12.4831 59.5368 20.9171C61.8111 22.1421 63.9114 24.0151 65.7104 25.9878C72.2702 33.267 76.5319 41.7681 77.9323 51.4974C78.3664 54.6401 77.8817 57.9581 77.5059 61.1375C77.405 62.4032 76.4796 63.582 75.9246 64.7154C75.4161 64.6524 74.9076 64.5894 74.3991 64.5265Z" fill="#407BFF"/>
</svg>
