<svg width="491" height="264" viewBox="0 0 491 264" fill="none" xmlns="http://www.w3.org/2000/svg">
<path d="M97.1905 492.836C135.324 474.624 154.29 503.068 192.43 484.853C230.57 466.639 211.604 438.196 249.737 419.984C287.87 401.773 306.843 430.213 344.983 411.999C383.123 393.784 364.15 365.344 402.29 347.13C440.43 328.916 459.396 357.359 497.53 339.148C535.663 320.937 516.703 292.49 554.843 274.276C592.983 256.061 611.95 284.504 650.09 266.29C688.23 248.075 669.263 219.632 707.403 201.418" stroke="white" stroke-opacity="0.08" stroke-width="2" stroke-miterlimit="10"/>
<path d="M11.8821 364.904C50.0152 346.693 68.9818 375.136 107.122 356.922C145.262 338.707 126.295 310.264 164.428 292.053C202.562 273.842 221.535 302.282 259.675 284.067C297.815 265.853 278.842 237.413 316.982 219.199C355.122 200.984 374.088 229.427 412.221 211.216C450.354 193.005 431.395 164.559 469.535 146.344C507.675 128.13 526.641 156.573 564.781 138.359C602.921 120.144 583.955 91.7009 622.095 73.4865" stroke="white" stroke-opacity="0.08" stroke-width="2" stroke-miterlimit="10"/>
<path d="M125.626 535.479C163.759 517.268 182.726 545.711 220.866 527.497C259.006 509.282 240.039 480.839 278.172 462.628C316.305 444.417 335.279 472.857 373.419 454.642C411.559 436.428 392.585 407.988 430.725 389.773C468.865 371.559 487.832 400.002 525.965 381.791C564.098 363.58 545.139 335.133 583.279 316.919C621.419 298.704 640.385 327.148 678.525 308.933C716.665 290.719 697.699 262.276 735.839 244.061" stroke="white" stroke-opacity="0.08" stroke-width="2" stroke-miterlimit="10"/>
<path d="M40.3174 407.548C78.4506 389.337 97.4171 417.78 135.557 399.566C173.697 381.351 154.731 352.908 192.864 334.697C230.997 316.486 249.97 344.926 288.11 326.711C326.25 308.497 307.277 280.057 345.417 261.842C383.557 243.628 402.523 272.071 440.657 253.86C478.79 235.649 459.83 207.202 497.97 188.988C536.11 170.774 555.077 199.217 593.217 181.002C631.357 162.788 612.39 134.345 650.53 116.13" stroke="white" stroke-opacity="0.08" stroke-width="2" stroke-miterlimit="10"/>
<path d="M68.7532 450.192C106.886 431.981 125.853 460.424 163.993 442.209C202.133 423.995 183.166 395.552 221.299 377.341C259.433 359.13 278.406 387.569 316.546 369.355C354.686 351.141 335.713 322.701 373.853 304.486C411.993 286.272 430.959 314.715 469.092 296.504C507.225 278.293 488.266 249.846 526.406 231.632C564.546 213.417 583.512 241.861 621.652 223.646C659.792 205.432 640.826 176.989 678.966 158.774" stroke="white" stroke-opacity="0.08" stroke-width="2" stroke-miterlimit="10"/>
<path d="M-16.5534 322.261C21.5797 304.05 40.5462 332.493 78.6862 314.279C116.826 296.064 97.8597 267.621 135.993 249.41C174.126 231.199 193.099 259.639 231.239 241.424C269.379 223.21 250.406 194.77 288.546 176.556C326.686 158.341 345.653 186.784 383.786 168.573C421.919 150.362 402.959 121.916 441.099 103.701C479.239 85.4867 498.206 113.93 536.346 95.7155C574.486 77.501 555.519 49.0578 593.659 30.8434" stroke="white" stroke-opacity="0.08" stroke-width="2" stroke-miterlimit="10"/>
<path d="M87.7198 478.635C125.853 460.424 144.819 488.867 182.959 470.653C221.099 452.438 202.133 423.995 240.266 405.784C278.399 387.573 297.373 416.013 335.513 397.798C373.653 379.584 354.679 351.144 392.819 332.93C430.959 314.715 449.926 343.158 488.059 324.947C526.192 306.736 507.232 278.29 545.372 260.075C583.512 241.861 602.479 270.304 640.619 252.089C678.759 233.875 659.792 205.432 697.932 187.217" stroke="white" stroke-opacity="0.08" stroke-width="2" stroke-miterlimit="10"/>
<path d="M2.41336 350.704C40.5465 332.493 59.513 360.936 97.653 342.721C135.793 324.507 116.827 296.064 154.96 277.853C193.093 259.641 212.066 288.081 250.206 269.867C288.346 251.653 269.373 223.213 307.513 204.998C345.653 186.784 364.619 215.227 402.752 197.016C440.886 178.805 421.926 150.358 460.066 132.144C498.206 113.929 517.173 142.373 555.313 124.158C593.453 105.944 574.486 77.5005 612.626 59.286" stroke="white" stroke-opacity="0.08" stroke-width="2" stroke-miterlimit="10"/>
<path d="M116.155 521.278C154.288 503.067 173.255 531.51 211.395 513.296C249.535 495.081 230.568 466.638 268.702 448.427C306.835 430.216 325.808 458.656 363.948 440.441C402.088 422.227 383.115 393.787 421.255 375.573C459.395 357.358 478.361 385.801 516.494 367.59C554.628 349.379 535.668 320.933 573.808 302.718C611.948 284.504 630.914 312.947 669.055 294.733C707.195 276.518 688.228 248.075 726.368 229.861" stroke="white" stroke-opacity="0.08" stroke-width="2" stroke-miterlimit="10"/>
<path d="M30.8489 393.347C68.982 375.136 87.9486 403.579 126.089 385.365C164.229 367.151 145.262 338.707 183.395 320.496C221.528 302.285 240.502 330.725 278.642 312.511C316.782 294.296 297.808 265.856 335.948 247.642C374.088 229.427 393.055 257.871 431.188 239.659C469.321 221.448 450.362 193.002 488.502 174.787C526.642 156.573 545.608 185.016 583.748 166.802C621.888 148.587 602.922 120.144 641.062 101.93" stroke="white" stroke-opacity="0.08" stroke-width="2" stroke-miterlimit="10"/>
<path d="M59.284 435.992C97.4171 417.78 116.384 446.224 154.524 428.009C192.664 409.795 173.697 381.352 211.83 363.14C249.963 344.929 268.937 373.369 307.077 355.155C345.217 336.94 326.243 308.5 364.383 290.286C402.523 272.072 421.49 300.515 459.623 282.304C497.756 264.093 478.797 235.646 516.937 217.432C555.077 199.217 574.043 227.66 612.183 209.446C650.323 191.231 631.357 162.788 669.497 144.574" stroke="white" stroke-opacity="0.08" stroke-width="2" stroke-miterlimit="10"/>
<path d="M-26.0222 308.06C12.111 289.849 31.0775 318.292 69.2175 300.078C107.357 281.863 88.391 253.42 126.524 235.209C164.657 216.998 183.631 245.438 221.771 227.223C259.911 209.009 240.937 180.569 279.077 162.355C317.217 144.14 336.184 172.583 374.317 154.372C412.45 136.161 393.49 107.715 431.63 89.5002C469.77 71.2858 488.737 99.729 526.877 81.5145C565.017 63.3001 546.051 34.8569 584.191 16.6425" stroke="white" stroke-opacity="0.08" stroke-width="2" stroke-miterlimit="10"/>
<path d="M87.7198 478.635C125.853 460.424 144.819 488.867 182.959 470.653C221.099 452.438 202.133 423.995 240.266 405.784C278.399 387.573 297.373 416.013 335.513 397.798C373.653 379.584 354.679 351.144 392.819 332.93C430.959 314.715 449.926 343.158 488.059 324.947C526.192 306.736 507.232 278.29 545.372 260.075C583.512 241.861 602.479 270.304 640.619 252.089C678.759 233.875 659.792 205.432 697.932 187.217" stroke="white" stroke-opacity="0.08" stroke-width="2" stroke-miterlimit="10"/>
<path d="M2.41336 350.704C40.5465 332.493 59.513 360.936 97.653 342.721C135.793 324.507 116.827 296.064 154.96 277.853C193.093 259.641 212.066 288.081 250.206 269.867C288.346 251.653 269.373 223.213 307.513 204.998C345.653 186.784 364.619 215.227 402.752 197.016C440.886 178.805 421.926 150.358 460.066 132.144C498.206 113.929 517.173 142.373 555.313 124.158C593.453 105.944 574.486 77.5005 612.626 59.286" stroke="white" stroke-opacity="0.08" stroke-width="2" stroke-miterlimit="10"/>
<path d="M116.155 521.278C154.288 503.067 173.255 531.51 211.395 513.296C249.535 495.081 230.568 466.638 268.702 448.427C306.835 430.216 325.808 458.656 363.948 440.441C402.088 422.227 383.115 393.787 421.255 375.573C459.395 357.358 478.361 385.801 516.494 367.59C554.628 349.379 535.668 320.933 573.808 302.718C611.948 284.504 630.914 312.947 669.055 294.733C707.195 276.518 688.228 248.075 726.368 229.861" stroke="white" stroke-opacity="0.08" stroke-width="2" stroke-miterlimit="10"/>
<path d="M30.8489 393.347C68.982 375.136 87.9486 403.579 126.089 385.365C164.229 367.151 145.262 338.707 183.395 320.496C221.528 302.285 240.502 330.725 278.642 312.511C316.782 294.296 297.808 265.856 335.948 247.642C374.088 229.427 393.055 257.871 431.188 239.659C469.321 221.448 450.362 193.002 488.502 174.787C526.642 156.573 545.608 185.016 583.748 166.802C621.888 148.587 602.922 120.144 641.062 101.93" stroke="white" stroke-opacity="0.08" stroke-width="2" stroke-miterlimit="10"/>
<path d="M59.284 435.992C97.4171 417.78 116.384 446.224 154.524 428.009C192.664 409.795 173.697 381.352 211.83 363.14C249.963 344.929 268.937 373.369 307.077 355.155C345.217 336.94 326.243 308.5 364.383 290.286C402.523 272.072 421.49 300.515 459.623 282.304C497.756 264.093 478.797 235.646 516.937 217.432C555.077 199.217 574.043 227.66 612.183 209.446C650.323 191.231 631.357 162.788 669.497 144.574" stroke="white" stroke-opacity="0.08" stroke-width="2" stroke-miterlimit="10"/>
<path d="M-26.0222 308.06C12.111 289.849 31.0775 318.292 69.2175 300.078C107.357 281.863 88.391 253.42 126.524 235.209C164.657 216.998 183.631 245.438 221.771 227.223C259.911 209.009 240.937 180.569 279.077 162.355C317.217 144.14 336.184 172.583 374.317 154.372C412.45 136.161 393.49 107.715 431.63 89.5002C469.77 71.2858 488.737 99.729 526.877 81.5145C565.017 63.3001 546.051 34.8569 584.191 16.6425" stroke="white" stroke-opacity="0.08" stroke-width="2" stroke-miterlimit="10"/>
<path d="M135.122 549.722C173.255 531.51 192.222 559.954 230.362 541.739C268.502 523.525 249.535 495.082 287.668 476.87C325.801 458.659 344.775 487.099 382.915 468.885C421.055 450.67 402.081 422.23 440.221 404.016C478.361 385.802 497.328 414.245 535.461 396.034C573.594 377.822 554.634 349.376 592.775 331.162C630.915 312.947 649.881 341.39 688.021 323.176C726.161 304.961 707.195 276.518 745.335 258.304" stroke="white" stroke-opacity="0.08" stroke-width="2" stroke-miterlimit="10"/>
<path d="M78.251 464.435C116.384 446.224 135.351 474.667 173.491 456.452C211.631 438.238 192.664 409.795 230.797 391.584C268.93 373.372 287.904 401.812 326.044 383.598C364.184 365.383 345.21 336.944 383.35 318.729C421.49 300.515 440.457 328.958 478.59 310.747C516.723 292.536 497.764 264.089 535.904 245.875C574.044 227.66 593.01 256.103 631.15 237.889C669.29 219.675 650.324 191.231 688.464 173.017" stroke="white" stroke-opacity="0.08" stroke-width="2" stroke-miterlimit="10"/>
<path d="M-7.05563 336.504C31.0775 318.293 50.044 346.736 88.184 328.521C126.324 310.307 107.358 281.864 145.491 263.653C183.624 245.442 202.597 273.881 240.737 255.667C278.877 237.453 259.904 209.013 298.044 190.798C336.184 172.584 355.15 201.027 393.284 182.816C431.417 164.605 412.457 136.158 450.597 117.944C488.737 99.7294 507.704 128.173 545.844 109.958C583.984 91.7437 565.017 63.3005 603.157 45.0861" stroke="white" stroke-opacity="0.08" stroke-width="2" stroke-miterlimit="10"/>
<path d="M106.686 507.078C144.819 488.867 163.786 517.31 201.926 499.096C240.066 480.881 221.099 452.438 259.233 434.227C297.366 416.016 316.339 444.456 354.479 426.241C392.619 408.027 373.646 379.587 411.786 361.373C449.926 343.158 468.892 371.601 507.025 353.39C545.159 335.179 526.199 306.733 564.339 288.518C602.479 270.304 621.445 298.747 659.586 280.533C697.726 262.318 678.759 233.875 716.899 215.661" stroke="white" stroke-opacity="0.08" stroke-width="2" stroke-miterlimit="10"/>
<path d="M21.3799 379.147C59.5131 360.936 78.4796 389.379 116.62 371.165C154.76 352.95 135.793 324.507 173.926 306.296C212.059 288.085 231.033 316.525 269.173 298.31C307.313 280.096 288.339 251.656 326.479 233.441C364.619 215.227 383.586 243.67 421.719 225.459C459.852 207.248 440.893 178.801 479.033 160.587C517.173 142.372 536.139 170.816 574.279 152.601C612.419 134.387 593.453 105.944 631.593 87.7292" stroke="white" stroke-opacity="0.08" stroke-width="2" stroke-miterlimit="10"/>
<path d="M49.8152 421.79C87.9484 403.579 106.915 432.022 145.055 413.808C183.195 395.593 164.228 367.15 202.362 348.939C240.495 330.728 259.468 359.168 297.608 340.953C335.748 322.739 316.775 294.299 354.915 276.084C393.055 257.87 412.021 286.313 450.154 268.102C488.287 249.891 469.328 221.444 507.468 203.23C545.608 185.016 564.574 213.459 602.714 195.244C640.854 177.03 621.888 148.587 660.028 130.372" stroke="white" stroke-opacity="0.08" stroke-width="2" stroke-miterlimit="10"/>
<path d="M-35.4909 293.859C2.6422 275.648 21.6087 304.091 59.7487 285.877C97.8887 267.662 78.9222 239.219 117.055 221.008C155.188 202.797 174.162 231.237 212.302 213.022C250.442 194.808 231.469 166.368 269.609 148.154C307.749 129.939 326.715 158.382 364.848 140.171C402.981 121.96 384.022 93.5137 422.162 75.2993C460.302 57.0849 479.268 85.528 517.408 67.3136C555.548 49.0992 536.582 20.656 574.722 2.44156" stroke="white" stroke-opacity="0.08" stroke-width="2" stroke-miterlimit="10"/>
</svg>
